<svg xmlns="http://www.w3.org/2000/svg" xmlns:xlink="http://www.w3.org/1999/xlink" width="1760" height="973" viewBox="0 0 1760 973">
  <defs>
    <clipPath id="clip-path">
      <rect id="Rectangle_8" data-name="Rectangle 8" width="1760" height="973" transform="translate(80 5023)" fill="none"/>
    </clipPath>
  </defs>
  <g id="Group_42" data-name="Group 42" transform="translate(-80 -5023)">
    <g id="Group_40" data-name="Group 40">
      <rect id="Rectangle_7" data-name="Rectangle 7" width="1760" height="973" transform="translate(80 5023)" fill="#e2ebeb"/>
      <g id="Group_1" data-name="Group 1" clip-path="url(#clip-path)">
        <path id="Path_1" data-name="Path 1" d="M1729.5,4843q4.578,0,9.151.225t9.129.673q4.557.448,9.085,1.121t9.019,1.565q4.491.893,8.932,2t8.822,2.442q4.382,1.329,8.692,2.871t8.54,3.295q4.23,1.753,8.369,3.709t8.176,4.116q4.038,2.158,7.965,4.512t7.734,4.9q3.807,2.544,7.484,5.271t7.216,5.632q3.54,2.9,6.932,5.979t6.629,6.312q3.239,3.237,6.312,6.629t5.979,6.932q2.906,3.538,5.632,7.216t5.271,7.484q2.544,3.806,4.9,7.734t4.512,7.965q2.158,4.036,4.116,8.176t3.709,8.369q1.754,4.23,3.3,8.54t2.871,8.692q1.329,4.382,2.442,8.823t2.005,8.931q.894,4.489,1.565,9.019t1.121,9.085q.448,4.556.673,9.129t.225,9.151q0,4.578-.225,9.151t-.673,9.129q-.449,4.557-1.121,9.085t-1.565,9.02q-.892,4.49-2.005,8.931t-2.442,8.822q-1.329,4.381-2.871,8.692t-3.3,8.541q-1.752,4.228-3.709,8.368t-4.116,8.177q-2.159,4.036-4.512,7.964t-4.9,7.734q-2.544,3.807-5.271,7.484t-5.632,7.216q-2.9,3.54-5.979,6.932t-6.312,6.629q-3.237,3.239-6.629,6.313t-6.932,5.979q-3.539,2.9-7.216,5.631t-7.484,5.271q-3.807,2.544-7.734,4.9t-7.965,4.512q-4.037,2.157-8.176,4.115t-8.369,3.71q-4.228,1.752-8.54,3.294t-8.692,2.872q-4.381,1.327-8.822,2.441t-8.932,2.006q-4.49.893-9.019,1.564t-9.085,1.121q-4.555.448-9.129.673t-9.151.225q-4.578,0-9.151-.225t-9.129-.673q-4.557-.448-9.085-1.121t-9.019-1.564q-4.491-.894-8.932-2.006t-8.822-2.441q-4.382-1.331-8.692-2.872t-8.54-3.294q-4.23-1.752-8.369-3.71t-8.177-4.115q-4.037-2.158-7.964-4.512t-7.734-4.9q-3.807-2.542-7.484-5.271t-7.216-5.631q-3.54-2.906-6.932-5.979t-6.629-6.313q-3.239-3.237-6.312-6.629t-5.98-6.932q-2.9-3.538-5.631-7.216t-5.271-7.484q-2.544-3.806-4.9-7.734t-4.512-7.964q-2.158-4.038-4.116-8.177t-3.71-8.368q-1.752-4.23-3.294-8.541t-2.871-8.692q-1.329-4.381-2.442-8.822t-2.006-8.931q-.892-4.49-1.564-9.02t-1.121-9.085q-.448-4.555-.673-9.129T1543,5029.5q0-4.578.225-9.151t.673-9.129q.449-4.556,1.121-9.085t1.564-9.019q.894-4.49,2.006-8.931t2.442-8.823q1.329-4.381,2.871-8.692t3.294-8.54q1.752-4.23,3.71-8.369t4.116-8.176q2.157-4.038,4.512-7.965t4.9-7.734q2.544-3.806,5.271-7.484t5.631-7.216q2.906-3.538,5.98-6.932t6.312-6.629q3.237-3.237,6.629-6.312t6.932-5.979q3.539-2.906,7.216-5.632t7.484-5.271q3.807-2.544,7.734-4.9t7.964-4.512q4.038-2.158,8.177-4.116t8.369-3.709q4.228-1.752,8.54-3.295t8.692-2.871q4.381-1.329,8.822-2.442t8.932-2q4.49-.894,9.019-1.565t9.085-1.121q4.555-.448,9.129-.673T1729.5,4843Z" fill="none" stroke="#a6c3c3" stroke-width="2"/>
        <path id="Path_2" data-name="Path 2" d="M1730,4805q5.523,0,11.04.271t11.014.812q5.5.543,10.96,1.353t10.881,1.888q5.418,1.077,10.775,2.419t10.644,2.945q5.286,1.6,10.486,3.465t10.3,3.974q5.1,2.115,10.1,4.476t9.864,4.965q4.872,2.6,9.609,5.443t9.33,5.908q4.593,3.069,9.029,6.359t8.706,6.8q4.27,3.5,8.363,7.213t8,7.615q3.906,3.906,7.615,8t7.213,8.363q3.5,4.269,6.8,8.706t6.359,9.029q3.067,4.593,5.908,9.33t5.443,9.609q2.6,4.872,4.965,9.864t4.476,10.1q2.113,5.1,3.974,10.3t3.465,10.486q1.6,5.286,2.945,10.644t2.42,10.775q1.077,5.416,1.888,10.881t1.352,10.96q.54,5.5.812,11.014T1955,5030q0,5.525-.271,11.041t-.812,11.013q-.541,5.5-1.352,10.961t-1.888,10.881q-1.078,5.416-2.42,10.775t-2.945,10.643q-1.6,5.286-3.465,10.486t-3.974,10.3q-2.114,5.1-4.476,10.1t-4.965,9.864q-2.6,4.872-5.443,9.609t-5.908,9.33q-3.069,4.593-6.359,9.03t-6.8,8.706q-3.5,4.269-7.213,8.362t-7.615,8q-3.906,3.906-8,7.615t-8.363,7.214q-4.269,3.5-8.706,6.794t-9.029,6.359q-4.592,3.067-9.33,5.908t-9.609,5.444q-4.87,2.6-9.864,4.965t-10.1,4.475q-5.1,2.114-10.3,3.975t-10.486,3.464q-5.286,1.6-10.643,2.945t-10.776,2.42q-5.416,1.079-10.881,1.888t-10.96,1.352q-5.5.541-11.014.812T1730,5255q-5.523,0-11.04-.271t-11.014-.812q-5.5-.541-10.96-1.352t-10.881-1.888q-5.418-1.078-10.776-2.42t-10.643-2.945q-5.286-1.6-10.486-3.464t-10.3-3.975q-5.1-2.114-10.1-4.475t-9.864-4.965q-4.872-2.6-9.609-5.444t-9.33-5.908q-4.593-3.069-9.029-6.359t-8.707-6.794q-4.269-3.5-8.362-7.214t-8-7.615q-3.906-3.9-7.615-8t-7.213-8.362q-3.5-4.27-6.8-8.706t-6.359-9.03q-3.067-4.592-5.908-9.33t-5.443-9.609q-2.6-4.871-4.966-9.864t-4.475-10.1q-2.113-5.1-3.975-10.3t-3.464-10.486q-1.6-5.284-2.945-10.643t-2.42-10.775q-1.077-5.418-1.888-10.881t-1.352-10.961q-.541-5.5-.812-11.013T1505,5030q0-5.523.271-11.04t.812-11.014q.541-5.5,1.352-10.96t1.888-10.881q1.078-5.418,2.42-10.775t2.945-10.644q1.6-5.284,3.464-10.486t3.975-10.3q2.114-5.1,4.475-10.1t4.966-9.864q2.6-4.872,5.443-9.609t5.908-9.33q3.069-4.593,6.359-9.029t6.8-8.706q3.5-4.269,7.213-8.363t7.615-8q3.906-3.906,8-7.615t8.362-7.213q4.271-3.5,8.707-6.8t9.029-6.359q4.592-3.067,9.33-5.908t9.609-5.443q4.87-2.6,9.864-4.965t10.1-4.476q5.1-2.114,10.3-3.974t10.486-3.465q5.286-1.6,10.643-2.945t10.776-2.419q5.416-1.079,10.881-1.888t10.96-1.353q5.5-.54,11.014-.812T1730,4805Z" fill="none" stroke="#a6c3c3" stroke-width="2"/>
        <path id="Path_3" data-name="Path 3" d="M1729.5,4764q6.517,0,13.027.32t13,.959q6.486.639,12.933,1.6t12.839,2.228q6.393,1.271,12.715,2.855t12.559,3.476q6.239,1.891,12.374,4.088t12.158,4.689q6.022,2.495,11.914,5.281t11.64,5.859q5.748,3.072,11.338,6.423t11.01,6.972q5.419,3.621,10.654,7.5t10.273,8.017q5.039,4.134,9.868,8.512t9.438,8.985q4.608,4.609,8.985,9.438t8.512,9.868q4.135,5.039,8.018,10.273t7.5,10.654q3.621,5.419,6.972,11.01t6.423,11.338q3.072,5.747,5.859,11.64t5.281,11.914q2.494,6.021,4.69,12.158t4.088,12.374q1.891,6.237,3.475,12.559t2.855,12.715q1.272,6.391,2.228,12.839t1.6,12.934q.637,6.486.958,13t.32,13.027q0,6.518-.32,13.028t-.958,13q-.639,6.486-1.6,12.933t-2.228,12.84q-1.27,6.392-2.855,12.714t-3.475,12.56q-1.893,6.237-4.088,12.373t-4.69,12.159q-2.495,6.021-5.281,11.913t-5.859,11.64q-3.072,5.748-6.423,11.339T1950.255,5177q-3.621,5.42-7.5,10.654t-8.017,10.274q-4.134,5.038-8.512,9.867t-8.985,9.438q-4.61,4.61-9.438,8.986t-9.868,8.511q-5.037,4.136-10.273,8.018t-10.654,7.5q-5.42,3.621-11.01,6.972t-11.338,6.423q-5.748,3.074-11.64,5.859t-11.914,5.281q-6.021,2.495-12.158,4.69t-12.373,4.088q-6.239,1.892-12.56,3.475T1781.3,5289.9q-6.391,1.274-12.839,2.228t-12.933,1.6q-6.488.639-13,.959T1729.5,5295q-6.517,0-13.027-.319t-13-.959q-6.486-.639-12.933-1.6t-12.84-2.227q-6.391-1.272-12.714-2.856t-12.56-3.475q-6.237-1.891-12.373-4.088t-12.159-4.69q-6.021-2.495-11.913-5.281t-11.64-5.859q-5.748-3.072-11.338-6.423t-11.01-6.972q-5.419-3.621-10.654-7.5t-10.274-8.018q-5.037-4.134-9.867-8.511t-9.438-8.986q-4.608-4.608-8.986-9.438t-8.511-9.867q-4.135-5.038-8.018-10.274t-7.5-10.654q-3.621-5.419-6.972-11.009t-6.423-11.339q-3.072-5.747-5.859-11.64t-5.281-11.913q-2.494-6.023-4.69-12.159t-4.088-12.373q-1.891-6.237-3.475-12.56T1469.1,5081.3q-1.27-6.393-2.227-12.84t-1.6-12.933q-.637-6.486-.958-13T1464,5029.5q0-6.518.32-13.027t.958-13q.639-6.488,1.6-12.934t2.227-12.839q1.272-6.393,2.856-12.715t3.475-12.559q1.893-6.239,4.088-12.374t4.69-12.158q2.495-6.023,5.281-11.914t5.859-11.64q3.072-5.748,6.423-11.338t6.972-11.01q3.621-5.42,7.5-10.654t8.018-10.273q4.134-5.038,8.511-9.868t8.986-9.438q4.61-4.608,9.438-8.985t9.867-8.512q5.039-4.136,10.274-8.017t10.654-7.5q5.42-3.621,11.01-6.972t11.338-6.423q5.748-3.073,11.64-5.859t11.913-5.281q6.023-2.495,12.159-4.689t12.373-4.088q6.237-1.893,12.56-3.476t12.714-2.855q6.393-1.272,12.84-2.228t12.933-1.6q6.488-.639,13-.959T1729.5,4764Z" fill="none" stroke="#a6c3c3" stroke-width="2"/>
        <path id="Path_4" data-name="Path 4" d="M154.5,5328q4.578,0,9.151.225t9.129.673q4.557.448,9.085,1.121t9.019,1.565q4.491.893,8.932,2t8.822,2.442q4.382,1.329,8.692,2.871t8.54,3.295q4.23,1.753,8.369,3.709t8.176,4.116q4.038,2.158,7.965,4.512t7.734,4.9q3.807,2.544,7.484,5.271t7.216,5.632q3.54,2.9,6.932,5.979t6.629,6.312q3.238,3.237,6.312,6.629t5.979,6.932q2.906,3.538,5.632,7.216t5.271,7.484q2.544,3.806,4.9,7.734t4.512,7.965q2.158,4.036,4.116,8.176t3.709,8.369q1.753,4.23,3.295,8.54t2.871,8.692q1.329,4.382,2.442,8.823t2,8.931q.894,4.489,1.565,9.019t1.121,9.085q.449,4.556.673,9.129T341,5514.5q0,4.578-.225,9.151t-.673,9.129q-.448,4.557-1.121,9.085t-1.565,9.02q-.892,4.49-2,8.931t-2.442,8.822q-1.329,4.381-2.871,8.692t-3.295,8.541q-1.752,4.228-3.709,8.368t-4.116,8.177q-2.157,4.036-4.512,7.964t-4.9,7.734q-2.544,3.807-5.271,7.484t-5.632,7.216q-2.9,3.54-5.979,6.932t-6.312,6.629q-3.237,3.239-6.629,6.313t-6.932,5.979q-3.539,2.9-7.216,5.631t-7.484,5.271q-3.807,2.544-7.734,4.9t-7.965,4.512q-4.036,2.157-8.176,4.115t-8.369,3.71q-4.229,1.752-8.54,3.294t-8.692,2.872q-4.382,1.327-8.822,2.441t-8.932,2.006q-4.489.893-9.019,1.564t-9.085,1.121q-4.556.448-9.129.673T154.5,5701q-4.578,0-9.151-.225t-9.129-.673q-4.557-.448-9.085-1.121t-9.019-1.564q-4.491-.894-8.932-2.006t-8.822-2.441q-4.381-1.331-8.692-2.872t-8.54-3.294q-4.23-1.752-8.369-3.71t-8.177-4.115q-4.036-2.158-7.964-4.512t-7.734-4.9q-3.807-2.542-7.484-5.271t-7.216-5.631q-3.54-2.906-6.932-5.979t-6.629-6.313q-3.239-3.237-6.312-6.629t-5.979-6.932q-2.905-3.538-5.632-7.216t-5.271-7.484q-2.544-3.806-4.9-7.734t-4.512-7.964q-2.159-4.038-4.116-8.177t-3.71-8.368q-1.752-4.23-3.294-8.541t-2.871-8.692q-1.329-4.381-2.442-8.822t-2.005-8.931q-.894-4.49-1.565-9.02t-1.121-9.085q-.448-4.555-.673-9.129T-32,5514.5q0-4.578.225-9.151t.673-9.129q.448-4.556,1.121-9.085t1.565-9.019q.893-4.49,2.005-8.931t2.442-8.823q1.329-4.381,2.871-8.692t3.294-8.54q1.752-4.23,3.71-8.369t4.116-8.176q2.157-4.038,4.512-7.965t4.9-7.734q2.544-3.806,5.271-7.484t5.632-7.216q2.9-3.538,5.979-6.932t6.312-6.629q3.237-3.237,6.629-6.312t6.932-5.979q3.538-2.906,7.216-5.632t7.484-5.271q3.807-2.544,7.734-4.9t7.964-4.512q4.038-2.158,8.177-4.116t8.369-3.709q4.229-1.752,8.54-3.295t8.692-2.871q4.381-1.329,8.822-2.442t8.932-2q4.49-.894,9.019-1.565t9.085-1.121q4.556-.448,9.129-.673T154.5,5328Z" fill="none" stroke="#a6c3c3" stroke-width="2"/>
        <path id="Path_5" data-name="Path 5" d="M155,5290q5.523,0,11.04.271t11.014.812q5.5.543,10.96,1.353t10.881,1.888q5.418,1.077,10.776,2.419t10.643,2.945q5.286,1.6,10.486,3.465t10.3,3.974q5.1,2.115,10.1,4.476t9.864,4.965q4.872,2.6,9.609,5.443t9.33,5.908q4.593,3.069,9.029,6.359t8.706,6.8q4.27,3.5,8.363,7.213t8,7.615q3.906,3.906,7.615,8t7.213,8.363q3.5,4.269,6.795,8.706t6.359,9.029q3.068,4.593,5.908,9.33t5.443,9.609q2.6,4.872,4.966,9.864t4.475,10.1q2.114,5.1,3.974,10.3t3.465,10.486q1.6,5.286,2.945,10.644t2.42,10.775q1.077,5.416,1.888,10.881t1.352,10.96q.54,5.5.812,11.014T380,5515q0,5.525-.271,11.041t-.812,11.013q-.541,5.5-1.352,10.961t-1.888,10.881q-1.078,5.416-2.42,10.775t-2.945,10.643q-1.6,5.286-3.465,10.486t-3.974,10.3q-2.113,5.1-4.475,10.1t-4.966,9.864q-2.6,4.872-5.443,9.609t-5.908,9.33q-3.069,4.593-6.359,9.03t-6.795,8.706q-3.5,4.269-7.213,8.362t-7.615,8q-3.906,3.906-8,7.615t-8.363,7.214q-4.269,3.5-8.706,6.794T280,5702.081q-4.592,3.067-9.33,5.908t-9.609,5.444q-4.871,2.6-9.864,4.965t-10.1,4.475q-5.1,2.114-10.3,3.975t-10.486,3.464q-5.286,1.6-10.643,2.945t-10.776,2.42q-5.417,1.079-10.881,1.888t-10.96,1.352q-5.5.541-11.014.812T155,5740q-5.523,0-11.04-.271t-11.014-.812q-5.5-.541-10.96-1.352t-10.881-1.888q-5.418-1.078-10.776-2.42t-10.643-2.945q-5.286-1.6-10.486-3.464t-10.3-3.975q-5.1-2.114-10.1-4.475t-9.864-4.965q-4.872-2.6-9.609-5.444T30,5702.081q-4.593-3.069-9.029-6.359t-8.706-6.794q-4.271-3.5-8.363-7.214t-8-7.615q-3.906-3.9-7.615-8t-7.213-8.362q-3.5-4.27-6.8-8.706t-6.359-9.03q-3.067-4.592-5.908-9.33t-5.443-9.609q-2.6-4.871-4.966-9.864t-4.475-10.1q-2.114-5.1-3.974-10.3t-3.465-10.486q-1.6-5.284-2.945-10.643t-2.42-10.775q-1.077-5.418-1.888-10.881t-1.352-10.961q-.54-5.5-.812-11.013T-70,5515q0-5.523.271-11.04t.812-11.014q.542-5.5,1.352-10.96t1.888-10.881q1.079-5.418,2.42-10.775t2.945-10.644q1.6-5.284,3.465-10.486t3.974-10.3q2.114-5.1,4.475-10.1t4.966-9.864q2.6-4.872,5.443-9.609t5.908-9.33q3.069-4.593,6.359-9.029t6.8-8.706q3.5-4.269,7.213-8.363t7.615-8q3.906-3.906,8-7.615t8.363-7.213q4.269-3.5,8.706-6.8T30,5327.919q4.591-3.067,9.33-5.908t9.609-5.443q4.87-2.6,9.864-4.965t10.1-4.476q5.1-2.114,10.3-3.974t10.486-3.465q5.286-1.6,10.643-2.945t10.776-2.419q5.417-1.079,10.881-1.888t10.96-1.353q5.5-.54,11.014-.812T155,5290Z" fill="none" stroke="#a6c3c3" stroke-width="2"/>
        <path id="Path_6" data-name="Path 6" d="M154.5,5249q6.518,0,13.027.32t13,.959q6.486.639,12.933,1.6T206.3,5254.1q6.393,1.271,12.715,2.855t12.56,3.476q6.237,1.891,12.373,4.088t12.158,4.689q6.023,2.495,11.914,5.281t11.64,5.859q5.748,3.072,11.338,6.423t11.01,6.972q5.42,3.621,10.654,7.5t10.273,8.017q5.039,4.134,9.868,8.512t9.438,8.985q4.608,4.609,8.985,9.438t8.512,9.868q4.135,5.039,8.018,10.273t7.5,10.654q3.621,5.419,6.972,11.01t6.423,11.338q3.072,5.747,5.859,11.64t5.281,11.914q2.494,6.021,4.69,12.158t4.088,12.374q1.892,6.237,3.475,12.559T414.9,5462.7q1.272,6.391,2.228,12.839t1.6,12.934q.638,6.486.958,13T420,5514.5q0,6.518-.32,13.028t-.958,13q-.639,6.486-1.6,12.933T414.9,5566.3q-1.271,6.392-2.855,12.714t-3.475,12.56q-1.893,6.237-4.088,12.373t-4.69,12.159q-2.494,6.021-5.281,11.913t-5.859,11.64q-3.072,5.748-6.423,11.339T375.255,5662q-3.621,5.42-7.5,10.654t-8.018,10.274q-4.134,5.038-8.512,9.867t-8.985,9.438q-4.609,4.61-9.438,8.986t-9.868,8.511q-5.037,4.136-10.273,8.018t-10.654,7.5q-5.42,3.621-11.01,6.972t-11.338,6.423q-5.748,3.074-11.64,5.859T256.1,5759.79q-6.021,2.495-12.158,4.69t-12.373,4.088q-6.237,1.892-12.56,3.475T206.3,5774.9q-6.392,1.274-12.839,2.228t-12.933,1.6q-6.487.639-13,.959T154.5,5780q-6.518,0-13.027-.319t-13-.959q-6.486-.639-12.933-1.6T102.7,5774.9q-6.392-1.272-12.714-2.856t-12.56-3.475q-6.237-1.891-12.373-4.088T52.9,5759.79q-6.022-2.495-11.914-5.281t-11.64-5.859q-5.748-3.072-11.338-6.423T7,5735.255q-5.419-3.621-10.654-7.5t-10.273-8.018q-5.039-4.134-9.868-8.511t-9.438-8.986q-4.608-4.608-8.986-9.438t-8.511-9.867q-4.135-5.038-8.018-10.274t-7.5-10.654q-3.621-5.419-6.972-11.009t-6.423-11.339q-3.072-5.747-5.859-11.64T-90.79,5616.1q-2.495-6.023-4.69-12.159t-4.088-12.373q-1.892-6.237-3.475-12.56T-105.9,5566.3q-1.272-6.393-2.228-12.84t-1.6-12.933q-.638-6.486-.958-13T-111,5514.5q0-6.518.32-13.027t.958-13q.639-6.488,1.6-12.934t2.228-12.839q1.271-6.393,2.855-12.715t3.475-12.559q1.893-6.239,4.088-12.374t4.69-12.158q2.495-6.023,5.281-11.914t5.859-11.64q3.072-5.748,6.423-11.338t6.972-11.01q3.621-5.42,7.5-10.654t8.018-10.273q4.134-5.038,8.511-9.868t8.986-9.438q4.609-4.608,9.438-8.985t9.868-8.512q5.037-4.136,10.273-8.017T7,5293.745q5.42-3.621,11.01-6.972t11.338-6.423q5.748-3.073,11.64-5.859T52.9,5269.21q6.021-2.495,12.158-4.689t12.373-4.088q6.237-1.893,12.56-3.476T102.7,5254.1q6.391-1.272,12.839-2.228t12.933-1.6q6.487-.639,13-.959T154.5,5249Z" fill="none" stroke="#a6c3c3" stroke-width="2"/>
        <path id="Path_7" data-name="Path 7" d="M1752.5,5729q6.567,0,13.125.322t13.094.966q6.536.643,13.031,1.608t12.937,2.244q6.439,1.281,12.81,2.877t12.654,3.5q6.283,1.906,12.467,4.118t12.25,4.725q6.066,2.514,12,5.321t11.728,5.9q5.79,3.1,11.423,6.472t11.093,7.024q5.46,3.648,10.734,7.56t10.351,8.078q5.076,4.165,9.942,8.576t9.509,9.053q4.644,4.644,9.053,9.509t8.576,9.942q4.165,5.076,8.078,10.351t7.56,10.734q3.648,5.46,7.024,11.093t6.472,11.424q3.1,5.792,5.9,11.727t5.321,12q2.513,6.067,4.725,12.25t4.119,12.467q1.9,6.285,3.5,12.654t2.877,12.81q1.281,6.441,2.245,12.937t1.607,13.031q.643,6.535.966,13.094T2020,5996.5q0,6.567-.322,13.126t-.966,13.094q-.644,6.535-1.607,13.03t-2.245,12.937q-1.281,6.439-2.877,12.811t-3.5,12.653q-1.906,6.285-4.119,12.467t-4.725,12.25q-2.514,6.067-5.321,12t-5.9,11.728q-3.1,5.791-6.472,11.423t-7.024,11.093q-3.648,5.459-7.56,10.735t-8.078,10.35q-4.165,5.076-8.576,9.942t-9.053,9.509q-4.644,4.644-9.509,9.054t-9.942,8.576q-5.076,4.166-10.351,8.077t-10.734,7.56q-5.46,3.65-11.093,7.024t-11.423,6.472q-5.791,3.1-11.728,5.9t-12,5.321q-6.068,2.512-12.25,4.725t-12.467,4.119q-6.283,1.905-12.654,3.5t-12.81,2.877q-6.441,1.281-12.937,2.245t-13.031,1.607q-6.534.644-13.094.966T1752.5,6264q-6.567,0-13.126-.322t-13.094-.966q-6.534-.643-13.03-1.607t-12.937-2.245q-6.439-1.281-12.81-2.876t-12.654-3.5q-6.285-1.906-12.467-4.119t-12.25-4.725q-6.066-2.514-12-5.321t-11.728-5.9q-5.791-3.094-11.424-6.472t-11.092-7.024q-5.46-3.648-10.735-7.56t-10.35-8.078q-5.076-4.165-9.942-8.575t-9.509-9.054q-4.644-4.642-9.053-9.509t-8.576-9.942q-4.167-5.076-8.078-10.35t-7.56-10.735q-3.648-5.46-7.025-11.093t-6.471-11.423q-3.1-5.792-5.9-11.728t-5.321-12q-2.513-6.067-4.725-12.25t-4.119-12.467q-1.9-6.283-3.5-12.653t-2.877-12.811q-1.281-6.441-2.245-12.937t-1.607-13.03q-.643-6.536-.966-13.094T1485,5996.5q0-6.565.322-13.125t.966-13.094q.644-6.535,1.607-13.031t2.245-12.937q1.281-6.439,2.877-12.81t3.5-12.654q1.906-6.283,4.119-12.467t4.725-12.25q2.512-6.066,5.321-12t5.9-11.727q3.1-5.791,6.471-11.424t7.025-11.093q3.648-5.459,7.56-10.734t8.078-10.351q4.165-5.076,8.576-9.942t9.053-9.509q4.642-4.644,9.509-9.053t9.942-8.576q5.076-4.166,10.35-8.078t10.735-7.56q5.46-3.648,11.092-7.024t11.424-6.472q5.791-3.1,11.728-5.9t12-5.321q6.068-2.512,12.25-4.725t12.467-4.118q6.283-1.906,12.654-3.5t12.81-2.877q6.441-1.281,12.937-2.244t13.03-1.608q6.535-.644,13.094-.966T1752.5,5729Z" fill="none" stroke="#a6c3c3" stroke-width="2"/>
        <path id="Path_8" data-name="Path 8" d="M1753.5,5675q7.917,0,15.824.389t15.786,1.164q7.88.775,15.711,1.938t15.6,2.706q7.764,1.545,15.444,3.468t15.256,4.222q7.575,2.3,15.03,4.965t14.768,5.7q7.315,3.03,14.471,6.415t14.139,7.117q6.983,3.732,13.773,7.8t13.373,8.468q6.584,4.4,12.942,9.115t12.479,9.739q6.12,5.022,11.986,10.338t11.464,10.915q5.6,5.6,10.915,11.464t10.339,11.986q5.022,6.119,9.738,12.479t9.115,12.942q4.4,6.582,8.468,13.373t7.8,13.773q3.73,6.981,7.116,14.139t6.415,14.471q3.03,7.314,5.7,14.768t4.965,15.03q2.3,7.577,4.222,15.256t3.468,15.444q1.545,7.765,2.706,15.6t1.938,15.71q.776,7.878,1.165,15.786T2076,5997.5q0,7.917-.388,15.825t-1.165,15.786q-.776,7.878-1.938,15.71t-2.706,15.6q-1.545,7.764-3.468,15.444t-4.222,15.256q-2.3,7.576-4.965,15.03t-5.7,14.769q-3.03,7.314-6.415,14.471t-7.116,14.139q-3.732,6.983-7.8,13.772t-8.468,13.374q-4.4,6.582-9.115,12.941t-9.738,12.479q-5.022,6.12-10.339,11.986t-10.915,11.464q-5.6,5.6-11.464,10.915t-11.986,10.339q-6.12,5.024-12.479,9.739t-12.942,9.114q-6.582,4.4-13.373,8.469t-13.773,7.8q-6.981,3.732-14.139,7.117t-14.471,6.414q-7.314,3.03-14.768,5.7t-15.03,4.965q-7.576,2.3-15.256,4.222t-15.444,3.469q-7.766,1.543-15.6,2.706t-15.711,1.937q-7.878.777-15.786,1.165T1753.5,6320q-7.917,0-15.824-.388t-15.787-1.165q-7.878-.775-15.71-1.937t-15.6-2.706q-7.764-1.545-15.444-3.469t-15.256-4.222q-7.577-2.3-15.03-4.965t-14.769-5.7q-7.314-3.029-14.471-6.414t-14.139-7.117q-6.981-3.732-13.772-7.8t-13.374-8.469q-6.582-4.4-12.941-9.114t-12.479-9.739q-6.12-5.021-11.986-10.339t-11.464-10.915q-5.6-5.6-10.915-11.464t-10.339-11.986q-5.022-6.119-9.739-12.479t-9.114-12.941q-4.4-6.583-8.469-13.374t-7.8-13.772q-3.732-6.982-7.117-14.139t-6.414-14.471q-3.03-7.314-5.7-14.769t-4.965-15.03q-2.3-7.577-4.222-15.256t-3.468-15.444q-1.545-7.765-2.707-15.6t-1.937-15.71q-.775-7.879-1.165-15.786T1431,5997.5q0-7.917.388-15.824t1.165-15.786q.775-7.879,1.937-15.71t2.707-15.6q1.543-7.764,3.468-15.444t4.222-15.256q2.3-7.575,4.965-15.03t5.7-14.768q3.03-7.315,6.414-14.471t7.117-14.139q3.732-6.983,7.8-13.773t8.469-13.373q4.4-6.584,9.114-12.942t9.739-12.479q5.022-6.119,10.339-11.986t10.915-11.464q5.6-5.6,11.464-10.915t11.986-10.338q6.12-5.024,12.479-9.739t12.941-9.115q6.584-4.4,13.374-8.468t13.772-7.8q6.983-3.732,14.139-7.117t14.471-6.415q7.316-3.03,14.769-5.7t15.03-4.965q7.576-2.3,15.256-4.222t15.444-3.468q7.766-1.545,15.6-2.706t15.71-1.938q7.879-.776,15.787-1.164T1753.5,5675Z" fill="none" stroke="#a6c3c3" stroke-width="2"/>
        <path id="Path_9" data-name="Path 9" d="M1752.5,5616q9.341,0,18.67.458t18.625,1.375q9.3.915,18.536,2.286t18.4,3.193q9.16,1.821,18.222,4.091t18,4.981q8.938,2.712,17.734,5.859t17.424,6.721q8.63,3.575,17.074,7.568t16.681,8.4q8.238,4.4,16.25,9.2t15.778,9.992q7.767,5.188,15.27,10.754t14.723,11.49q7.219,5.925,14.141,12.2t13.526,12.878q6.6,6.606,12.878,13.526t12.2,14.142q5.927,7.219,11.49,14.722t10.754,15.27q5.19,7.767,9.992,15.778t9.205,16.25q4.4,8.237,8.4,16.681t7.568,17.074q3.575,8.629,6.721,17.424t5.859,17.734q2.711,8.938,4.981,18t4.092,18.223q1.823,9.16,3.193,18.4t2.286,18.536q.915,9.3,1.374,18.625t.458,18.67q0,9.342-.458,18.67t-1.374,18.626q-.917,9.3-2.286,18.535t-3.193,18.4q-1.822,9.16-4.092,18.222t-4.981,18q-2.712,8.938-5.859,17.733t-6.721,17.424q-3.574,8.629-7.568,17.074t-8.4,16.682q-4.4,8.236-9.206,16.249t-9.991,15.779q-5.188,7.765-10.754,15.269t-11.49,14.723q-5.925,7.221-12.2,14.141t-12.878,13.526q-6.6,6.606-13.526,12.878t-14.141,12.2q-7.221,5.925-14.723,11.49t-15.27,10.754q-7.766,5.188-15.778,9.991t-16.25,9.2q-8.236,4.4-16.681,8.4t-17.074,7.569q-8.629,3.573-17.424,6.721t-17.734,5.858q-8.938,2.711-18,4.981t-18.222,4.092q-9.162,1.822-18.4,3.193t-18.536,2.286q-9.3.915-18.625,1.374t-18.67.458q-9.341,0-18.67-.458t-18.626-1.374q-9.3-.915-18.535-2.286t-18.4-3.193q-9.16-1.822-18.222-4.092t-18-4.981q-8.938-2.711-17.734-5.858t-17.424-6.721q-8.63-3.576-17.074-7.569t-16.681-8.4q-8.238-4.4-16.25-9.2t-15.779-9.991q-7.766-5.19-15.269-10.754t-14.723-11.49q-7.219-5.926-14.141-12.2t-13.526-12.878q-6.606-6.6-12.878-13.526t-12.2-14.141q-5.927-7.221-11.49-14.723t-10.754-15.269q-5.19-7.767-9.992-15.779t-9.205-16.249q-4.4-8.238-8.4-16.682t-7.568-17.074q-3.574-8.629-6.722-17.424t-5.858-17.733q-2.711-8.938-4.981-18t-4.092-18.222q-1.823-9.16-3.193-18.4t-2.286-18.535q-.915-9.3-1.374-18.626T1372,5996.5q0-9.341.458-18.67t1.374-18.625q.916-9.3,2.286-18.536t3.193-18.4q1.822-9.162,4.092-18.223t4.981-18q2.712-8.938,5.858-17.734t6.722-17.424q3.575-8.629,7.568-17.074t8.4-16.681q4.4-8.238,9.205-16.25t9.992-15.778q5.188-7.767,10.754-15.27t11.49-14.722q5.925-7.221,12.2-14.142t12.878-13.526q6.6-6.6,13.526-12.878t14.141-12.2q7.221-5.927,14.723-11.49t15.269-10.754q7.767-5.188,15.779-9.992t16.249-9.2q8.238-4.4,16.682-8.4t17.074-7.568q8.629-3.574,17.424-6.721t17.734-5.859q8.938-2.71,18-4.981t18.222-4.091q9.162-1.822,18.4-3.193t18.535-2.286q9.3-.916,18.626-1.375T1752.5,5616Z" fill="none" stroke="#a6c3c3" stroke-width="2"/>
      </g>
    </g>
  </g>
</svg>
